<svg version="1.1" id="Layer_1" xmlns="http://www.w3.org/2000/svg" xmlns:xlink="http://www.w3.org/1999/xlink" x="0px" y="0px"
	 width="100%" viewBox="0 0 496 496" enable-background="new 0 0 496 496" xml:space="preserve">
<path fill="#000000" opacity="1.000000" stroke="none" 
	d="
M293.793213,251.614777 
	C292.323151,256.632843 290.835358,261.232574 289.715393,265.920135 
	C288.920471,269.247437 287.230988,270.515045 283.769897,270.430817 
	C271.650116,270.135895 273.892059,271.790283 270.725037,260.861572 
	C268.876007,254.480865 267.050720,248.093246 264.841980,240.412445 
	C262.409576,248.871124 260.373230,256.263763 258.123932,263.591034 
	C257.420349,265.883026 257.589600,269.326965 254.907394,269.945068 
	C250.730103,270.907745 246.267624,270.866760 242.031281,269.879944 
	C240.281265,269.472290 240.281540,267.188812 239.822922,265.653259 
	C237.407303,257.565308 235.092636,249.447220 232.391861,240.128204 
	C230.440964,244.965286 228.236115,246.588684 223.706924,245.463974 
	C218.870102,244.262863 215.850494,247.400299 215.496750,252.991943 
	C215.213196,257.474152 215.340027,261.988129 215.422348,266.485474 
	C215.472763,269.239777 214.275070,270.212158 211.561218,270.394043 
	C203.048950,270.964630 202.700180,270.752655 202.693176,262.460388 
	C202.686554,254.628052 202.799088,246.794113 202.668869,238.964066 
	C202.614716,235.707458 203.924896,234.246002 207.092590,234.692444 
	C210.290070,235.143097 214.204956,232.937302 216.529709,237.438843 
	C220.284683,234.023880 224.820404,233.356506 229.980316,233.568771 
	C229.715302,228.276306 227.690964,223.724823 226.420609,219.019287 
	C224.947128,213.561447 225.275528,213.058563 231.034561,212.975250 
	C232.200851,212.958374 233.378830,213.074722 234.532059,212.950287 
	C238.526871,212.519287 240.512024,214.121933 241.432327,218.199875 
	C243.771011,228.562576 246.552567,238.825348 249.937851,249.175797 
	C252.658310,238.951736 255.488876,228.755066 258.041168,218.489212 
	C258.970551,214.751038 260.471161,212.757492 264.756042,212.853104 
	C268.562622,212.938049 270.421082,214.144119 271.351624,217.928177 
	C273.881104,228.214645 276.771484,238.412354 280.479187,248.715363 
	C282.798340,239.646530 285.138733,230.583084 287.430542,221.507355 
	C289.676361,212.613861 294.664185,210.379196 304.310547,214.486954 
	C300.866516,226.682037 297.399658,238.958023 293.793213,251.614777 
z"/>
<path fill="#000000" opacity="1.000000" stroke="none" 
	d="
M162.264221,242.563171 
	C168.703278,233.820023 175.483444,231.519363 185.069489,234.975861 
	C189.085526,236.423950 192.714737,234.175400 196.653076,234.478867 
	C200.449463,234.771393 202.062500,235.835815 202.015686,239.689041 
	C201.912552,248.176239 201.945618,256.666901 202.064682,265.154144 
	C202.116364,268.837372 200.914337,270.899414 196.869507,270.399109 
	C193.978485,270.041534 190.945587,271.125153 188.200485,269.084290 
	C187.046509,268.226379 185.736969,269.571777 184.531540,270.046539 
	C179.106598,272.183167 173.582779,272.320282 168.788773,268.954590 
	C165.685638,266.775970 163.425644,267.106018 160.272049,268.529297 
	C144.877075,275.477203 126.970589,269.984192 118.828323,256.065002 
	C108.587326,238.558060 119.642235,216.341522 140.334991,212.701691 
	C147.274734,211.481018 153.883804,212.545792 160.376114,214.952042 
	C163.870834,216.247299 165.127533,218.363235 162.938614,221.824417 
	C162.230743,222.943710 161.625595,224.152573 161.147949,225.387924 
	C160.022659,228.298203 158.491531,228.821671 155.399170,227.614243 
	C146.907455,224.298630 137.687332,226.289902 133.374985,231.859329 
	C129.219147,237.226608 128.880768,245.052948 132.566498,250.557724 
	C136.512772,256.451599 144.432114,259.253052 152.086060,257.309448 
	C156.385178,256.217773 160.345322,254.843613 160.137955,249.020020 
	C160.066025,247.000229 161.379272,244.931107 162.264221,242.563171 
M173.806564,253.212646 
	C175.510300,258.650696 177.864212,260.463806 182.562210,259.773987 
	C186.327179,259.221161 188.442535,256.986084 188.699066,253.154694 
	C188.983917,248.900345 187.042694,246.135223 182.857254,245.265106 
	C177.938934,244.242630 175.187027,246.516556 173.806564,253.212646 
z"/>
<path fill="#000000" opacity="1.000000" stroke="none" 
	d="
M301.554199,264.255005 
	C297.529663,257.941345 296.660370,251.627838 299.225800,244.890854 
	C302.169617,237.160217 309.666382,232.076569 318.297424,233.986664 
	C323.936707,235.234680 329.267731,234.791824 334.726013,234.582321 
	C338.685547,234.430328 340.130371,235.954971 339.985291,239.781097 
	C339.815033,244.271927 339.937531,248.773926 339.935699,253.271072 
	C339.933868,257.751373 339.935272,262.231659 340.658813,266.712402 
	C340.658813,258.112000 340.575958,249.510254 340.718323,240.912231 
	C340.752960,238.821793 339.488495,236.054840 342.571075,234.863541 
	C346.055847,233.516769 352.319031,235.002777 354.210175,237.716766 
	C358.268219,233.832855 363.037079,232.679276 368.433807,234.270096 
	C371.026245,235.034256 372.025940,236.353241 370.598907,239.048874 
	C368.571014,242.879486 367.767700,247.426880 361.142761,245.468048 
	C356.492584,244.093109 353.616638,247.398514 353.398163,252.765961 
	C353.215393,257.256470 353.221832,261.761566 353.340790,266.255005 
	C353.420135,269.251678 352.204651,270.445618 349.219269,270.393402 
	C342.896637,270.282837 336.290741,271.471954 330.340210,269.979004 
	C326.047211,268.901947 323.110016,270.305573 319.491730,271.019226 
	C312.453888,272.407257 306.283173,270.543549 301.554199,264.255005 
M311.635864,252.521423 
	C313.359406,259.276917 318.691711,262.026794 323.613831,258.694305 
	C326.864777,256.493286 327.374603,253.273407 326.395844,249.876022 
	C325.463928,246.641464 322.864197,245.172821 319.561035,245.106430 
	C315.003265,245.014832 312.486633,247.396271 311.635864,252.521423 
z"/>
<path fill="#000000" opacity="1.000000" stroke="none" 
	d="
M368.415924,261.516907 
	C369.920532,256.731659 373.031708,254.556274 377.546326,255.083908 
	C381.109222,255.500305 383.639374,257.619629 384.304871,261.398804 
	C385.193909,266.447449 382.324890,270.669067 377.646088,271.263214 
	C372.026886,271.976776 368.618256,268.552277 368.415924,261.516907 
z"/>
</svg>