<svg xmlns="http://www.w3.org/2000/svg" xmlns:xlink="http://www.w3.org/1999/xlink" width="500" zoomAndPan="magnify" viewBox="0 0 375 374.999991" height="500" preserveAspectRatio="xMidYMid meet" version="1.0"><defs><g/></defs><rect x="-37.5" width="450" fill="#ffffff" y="-37.499999" height="449.999989" fill-opacity="1"/><rect x="-37.5" width="450" fill="#f1efe7" y="-37.499999" height="449.999989" fill-opacity="1"/><g fill="#000000" fill-opacity="1"><g transform="translate(84.553292, 198.743526)"><g><path d="M 25.546875 -8.703125 C 27.015625 -8.703125 28.441406 -8.921875 29.828125 -9.359375 C 31.210938 -9.804688 32.226562 -10.238281 32.875 -10.65625 L 33.84375 -11.3125 L 37.9375 -3.125 C 37.800781 -3.019531 37.613281 -2.878906 37.375 -2.703125 C 37.132812 -2.535156 36.578125 -2.222656 35.703125 -1.765625 C 34.835938 -1.304688 33.910156 -0.90625 32.921875 -0.5625 C 31.929688 -0.21875 30.632812 0.0859375 29.03125 0.359375 C 27.425781 0.628906 25.769531 0.765625 24.0625 0.765625 C 20.132812 0.765625 16.410156 -0.195312 12.890625 -2.125 C 9.378906 -4.050781 6.546875 -6.703125 4.390625 -10.078125 C 2.242188 -13.460938 1.171875 -17.117188 1.171875 -21.046875 C 1.171875 -24.015625 1.800781 -26.863281 3.0625 -29.59375 C 4.332031 -32.320312 6.015625 -34.660156 8.109375 -36.609375 C 10.210938 -38.554688 12.660156 -40.109375 15.453125 -41.265625 C 18.253906 -42.429688 21.125 -43.015625 24.0625 -43.015625 C 26.789062 -43.015625 29.304688 -42.6875 31.609375 -42.03125 C 33.921875 -41.382812 35.550781 -40.738281 36.5 -40.09375 L 37.9375 -39.125 L 33.84375 -30.921875 C 33.601562 -31.128906 33.242188 -31.378906 32.765625 -31.671875 C 32.285156 -31.960938 31.328125 -32.34375 29.890625 -32.8125 C 28.460938 -33.289062 27.015625 -33.53125 25.546875 -33.53125 C 23.222656 -33.53125 21.140625 -33.15625 19.296875 -32.40625 C 17.453125 -31.65625 15.992188 -30.664062 14.921875 -29.4375 C 13.847656 -28.207031 13.03125 -26.882812 12.46875 -25.46875 C 11.90625 -24.050781 11.625 -22.609375 11.625 -21.140625 C 11.625 -17.929688 12.828125 -15.054688 15.234375 -12.515625 C 17.640625 -9.972656 21.078125 -8.703125 25.546875 -8.703125 Z M 25.546875 -8.703125 "/></g></g></g><g fill="#000000" fill-opacity="1"><g transform="translate(118.292195, 198.743526)"><g><path d="M 4.859375 -3.25 C 2.398438 -5.925781 1.171875 -9.207031 1.171875 -13.09375 C 1.171875 -16.988281 2.398438 -20.285156 4.859375 -22.984375 C 7.316406 -25.679688 10.441406 -27.03125 14.234375 -27.03125 C 17.710938 -27.03125 20.582031 -25.941406 22.84375 -23.765625 L 22.84375 -26.265625 L 31.90625 -26.265625 L 31.90625 0 L 22.9375 0 L 22.9375 -2.96875 L 22.84375 -2.96875 C 20.582031 -0.476562 17.710938 0.765625 14.234375 0.765625 C 10.441406 0.765625 7.316406 -0.570312 4.859375 -3.25 Z M 12.5625 -17.5625 C 11.382812 -16.40625 10.796875 -14.921875 10.796875 -13.109375 C 10.796875 -11.296875 11.359375 -9.816406 12.484375 -8.671875 C 13.617188 -7.535156 15.109375 -6.96875 16.953125 -6.96875 C 18.722656 -6.96875 20.179688 -7.546875 21.328125 -8.703125 C 22.472656 -9.867188 23.046875 -11.335938 23.046875 -13.109375 C 23.046875 -14.921875 22.457031 -16.40625 21.28125 -17.5625 C 20.101562 -18.71875 18.660156 -19.296875 16.953125 -19.296875 C 15.210938 -19.296875 13.75 -18.71875 12.5625 -17.5625 Z M 12.5625 -17.5625 "/></g></g></g><g fill="#000000" fill-opacity="1"><g transform="translate(148.447152, 198.743526)"><g><path d="M 3.078125 0 L 3.078125 -26.265625 L 12.140625 -26.265625 L 12.140625 -22.484375 L 12.234375 -22.484375 C 12.304688 -22.617188 12.414062 -22.785156 12.5625 -22.984375 C 12.71875 -23.191406 13.050781 -23.550781 13.5625 -24.0625 C 14.082031 -24.570312 14.628906 -25.03125 15.203125 -25.4375 C 15.785156 -25.851562 16.535156 -26.222656 17.453125 -26.546875 C 18.378906 -26.867188 19.320312 -27.03125 20.28125 -27.03125 C 21.269531 -27.03125 22.238281 -26.894531 23.1875 -26.625 C 24.144531 -26.351562 24.847656 -26.082031 25.296875 -25.8125 L 26.015625 -25.390625 L 22.21875 -17.71875 C 21.09375 -18.675781 19.523438 -19.15625 17.515625 -19.15625 C 16.421875 -19.15625 15.476562 -18.914062 14.6875 -18.4375 C 13.90625 -17.957031 13.351562 -17.375 13.03125 -16.6875 C 12.707031 -16.007812 12.476562 -15.429688 12.34375 -14.953125 C 12.207031 -14.472656 12.140625 -14.097656 12.140625 -13.828125 L 12.140625 0 Z M 3.078125 0 "/></g></g></g><g fill="#000000" fill-opacity="1"><g transform="translate(169.130247, 198.743526)"><g><path d="M 35.484375 0 L 28.71875 -23.703125 L 21.96875 0 L 11.265625 0 L -0.765625 -42.25 L 9.9375 -42.25 L 17.15625 -13.265625 L 17.40625 -13.265625 L 25.09375 -42.25 L 32.359375 -42.25 L 40.046875 -13.265625 L 40.296875 -13.265625 L 47.515625 -42.25 L 58.171875 -42.25 L 46.140625 0 Z M 35.484375 0 "/></g></g></g><g fill="#000000" fill-opacity="1"><g transform="translate(221.710472, 198.743526)"><g><path d="M 4.859375 -3.25 C 2.398438 -5.925781 1.171875 -9.207031 1.171875 -13.09375 C 1.171875 -16.988281 2.398438 -20.285156 4.859375 -22.984375 C 7.316406 -25.679688 10.441406 -27.03125 14.234375 -27.03125 C 17.710938 -27.03125 20.582031 -25.941406 22.84375 -23.765625 L 22.84375 -26.265625 L 31.90625 -26.265625 L 31.90625 0 L 22.9375 0 L 22.9375 -2.96875 L 22.84375 -2.96875 C 20.582031 -0.476562 17.710938 0.765625 14.234375 0.765625 C 10.441406 0.765625 7.316406 -0.570312 4.859375 -3.25 Z M 12.5625 -17.5625 C 11.382812 -16.40625 10.796875 -14.921875 10.796875 -13.109375 C 10.796875 -11.296875 11.359375 -9.816406 12.484375 -8.671875 C 13.617188 -7.535156 15.109375 -6.96875 16.953125 -6.96875 C 18.722656 -6.96875 20.179688 -7.546875 21.328125 -8.703125 C 22.472656 -9.867188 23.046875 -11.335938 23.046875 -13.109375 C 23.046875 -14.921875 22.457031 -16.40625 21.28125 -17.5625 C 20.101562 -18.71875 18.660156 -19.296875 16.953125 -19.296875 C 15.210938 -19.296875 13.75 -18.71875 12.5625 -17.5625 Z M 12.5625 -17.5625 "/></g></g></g><g fill="#000000" fill-opacity="1"><g transform="translate(251.865423, 198.743526)"><g><path d="M 3.078125 0 L 3.078125 -26.265625 L 12.140625 -26.265625 L 12.140625 -22.484375 L 12.234375 -22.484375 C 12.304688 -22.617188 12.414062 -22.785156 12.5625 -22.984375 C 12.71875 -23.191406 13.050781 -23.550781 13.5625 -24.0625 C 14.082031 -24.570312 14.628906 -25.03125 15.203125 -25.4375 C 15.785156 -25.851562 16.535156 -26.222656 17.453125 -26.546875 C 18.378906 -26.867188 19.320312 -27.03125 20.28125 -27.03125 C 21.269531 -27.03125 22.238281 -26.894531 23.1875 -26.625 C 24.144531 -26.351562 24.847656 -26.082031 25.296875 -25.8125 L 26.015625 -25.390625 L 22.21875 -17.71875 C 21.09375 -18.675781 19.523438 -19.15625 17.515625 -19.15625 C 16.421875 -19.15625 15.476562 -18.914062 14.6875 -18.4375 C 13.90625 -17.957031 13.351562 -17.375 13.03125 -16.6875 C 12.707031 -16.007812 12.476562 -15.429688 12.34375 -14.953125 C 12.207031 -14.472656 12.140625 -14.097656 12.140625 -13.828125 L 12.140625 0 Z M 3.078125 0 "/></g></g></g><g fill="#000000" fill-opacity="1"><g transform="translate(272.548513, 198.743526)"><g><path d="M 8.90625 -10.953125 C 10.539062 -10.953125 11.929688 -10.378906 13.078125 -9.234375 C 14.222656 -8.097656 14.796875 -6.707031 14.796875 -5.0625 C 14.796875 -3.457031 14.222656 -2.082031 13.078125 -0.9375 C 11.929688 0.195312 10.539062 0.765625 8.90625 0.765625 C 7.300781 0.765625 5.925781 0.195312 4.78125 -0.9375 C 3.644531 -2.082031 3.078125 -3.457031 3.078125 -5.0625 C 3.078125 -6.707031 3.644531 -8.097656 4.78125 -9.234375 C 5.925781 -10.378906 7.300781 -10.953125 8.90625 -10.953125 Z M 8.90625 -10.953125 "/></g></g></g><g fill="#000000" fill-opacity="1"><g transform="translate(174.013294, 325.064657)"><g><path d="M 0.421875 -0.84375 C 0.359375 -0.9375 0.328125 -1.03125 0.328125 -1.125 C 0.328125 -1.257812 0.398438 -1.375 0.546875 -1.46875 C 0.617188 -1.519531 0.695312 -1.546875 0.78125 -1.546875 C 0.90625 -1.546875 1.019531 -1.492188 1.125 -1.390625 C 1.332031 -1.160156 1.550781 -0.984375 1.78125 -0.859375 C 2.019531 -0.742188 2.304688 -0.6875 2.640625 -0.6875 C 2.898438 -0.695312 3.128906 -0.757812 3.328125 -0.875 C 3.523438 -0.988281 3.625 -1.171875 3.625 -1.421875 C 3.625 -1.660156 3.519531 -1.835938 3.3125 -1.953125 C 3.113281 -2.078125 2.820312 -2.191406 2.4375 -2.296875 C 2.050781 -2.398438 1.726562 -2.507812 1.46875 -2.625 C 1.21875 -2.738281 1.003906 -2.898438 0.828125 -3.109375 C 0.648438 -3.328125 0.5625 -3.613281 0.5625 -3.96875 C 0.5625 -4.28125 0.648438 -4.550781 0.828125 -4.78125 C 1.003906 -5.019531 1.238281 -5.203125 1.53125 -5.328125 C 1.820312 -5.460938 2.140625 -5.53125 2.484375 -5.53125 C 2.816406 -5.53125 3.144531 -5.46875 3.46875 -5.34375 C 3.789062 -5.21875 4.054688 -5.03125 4.265625 -4.78125 C 4.347656 -4.675781 4.390625 -4.570312 4.390625 -4.46875 C 4.390625 -4.363281 4.335938 -4.257812 4.234375 -4.15625 C 4.160156 -4.09375 4.070312 -4.0625 3.96875 -4.0625 C 3.84375 -4.0625 3.742188 -4.101562 3.671875 -4.1875 C 3.523438 -4.351562 3.347656 -4.476562 3.140625 -4.5625 C 2.929688 -4.65625 2.695312 -4.703125 2.4375 -4.703125 C 2.175781 -4.703125 1.953125 -4.648438 1.765625 -4.546875 C 1.585938 -4.441406 1.5 -4.257812 1.5 -4 C 1.507812 -3.757812 1.613281 -3.582031 1.8125 -3.46875 C 2.019531 -3.351562 2.332031 -3.238281 2.75 -3.125 C 3.113281 -3.03125 3.414062 -2.925781 3.65625 -2.8125 C 3.894531 -2.707031 4.097656 -2.546875 4.265625 -2.328125 C 4.429688 -2.109375 4.515625 -1.820312 4.515625 -1.46875 C 4.515625 -1.144531 4.421875 -0.863281 4.234375 -0.625 C 4.046875 -0.394531 3.800781 -0.210938 3.5 -0.078125 C 3.207031 0.046875 2.894531 0.109375 2.5625 0.109375 C 2.125 0.109375 1.71875 0.0351562 1.34375 -0.109375 C 0.976562 -0.265625 0.671875 -0.507812 0.421875 -0.84375 Z M 0.421875 -0.84375 "/></g></g></g><g fill="#000000" fill-opacity="1"><g transform="translate(179.545183, 325.064657)"><g><path d="M 1.65625 -0.5 C 1.65625 -0.351562 1.609375 -0.234375 1.515625 -0.140625 C 1.421875 -0.046875 1.304688 0 1.171875 0 C 1.023438 0 0.90625 -0.046875 0.8125 -0.140625 C 0.726562 -0.234375 0.6875 -0.351562 0.6875 -0.5 L 0.6875 -4.953125 C 0.6875 -5.097656 0.726562 -5.21875 0.8125 -5.3125 C 0.90625 -5.40625 1.023438 -5.453125 1.171875 -5.453125 C 1.304688 -5.453125 1.421875 -5.40625 1.515625 -5.3125 C 1.609375 -5.21875 1.65625 -5.097656 1.65625 -4.953125 Z M 1.15625 -6.140625 C 0.957031 -6.140625 0.816406 -6.175781 0.734375 -6.25 C 0.648438 -6.320312 0.609375 -6.4375 0.609375 -6.59375 L 0.609375 -6.75 C 0.609375 -6.914062 0.65625 -7.03125 0.75 -7.09375 C 0.84375 -7.164062 0.984375 -7.203125 1.171875 -7.203125 C 1.359375 -7.203125 1.492188 -7.164062 1.578125 -7.09375 C 1.671875 -7.019531 1.71875 -6.90625 1.71875 -6.75 L 1.71875 -6.59375 C 1.71875 -6.425781 1.671875 -6.304688 1.578125 -6.234375 C 1.492188 -6.171875 1.351562 -6.140625 1.15625 -6.140625 Z M 1.15625 -6.140625 "/></g></g></g><g fill="#000000" fill-opacity="1"><g transform="translate(182.501877, 325.064657)"><g><path d="M 3.484375 -5.53125 C 4.722656 -5.53125 5.34375 -4.785156 5.34375 -3.296875 L 5.34375 -0.5 C 5.34375 -0.351562 5.296875 -0.234375 5.203125 -0.140625 C 5.109375 -0.046875 4.988281 0 4.84375 0 C 4.707031 0 4.59375 -0.046875 4.5 -0.140625 C 4.40625 -0.234375 4.359375 -0.351562 4.359375 -0.5 L 4.359375 -3.296875 C 4.359375 -3.691406 4.265625 -4.007812 4.078125 -4.25 C 3.898438 -4.5 3.597656 -4.625 3.171875 -4.625 C 2.898438 -4.625 2.648438 -4.5625 2.421875 -4.4375 C 2.203125 -4.320312 2.03125 -4.160156 1.90625 -3.953125 C 1.78125 -3.753906 1.71875 -3.535156 1.71875 -3.296875 L 1.71875 -0.5 C 1.71875 -0.351562 1.671875 -0.234375 1.578125 -0.140625 C 1.484375 -0.046875 1.363281 0 1.21875 0 C 1.070312 0 0.953125 -0.046875 0.859375 -0.140625 C 0.773438 -0.234375 0.734375 -0.351562 0.734375 -0.5 L 0.734375 -4.90625 C 0.734375 -5.039062 0.78125 -5.15625 0.875 -5.25 C 0.96875 -5.351562 1.082031 -5.40625 1.21875 -5.40625 C 1.363281 -5.40625 1.484375 -5.351562 1.578125 -5.25 C 1.671875 -5.15625 1.71875 -5.039062 1.71875 -4.90625 L 1.71875 -4.546875 C 1.894531 -4.816406 2.140625 -5.046875 2.453125 -5.234375 C 2.773438 -5.429688 3.117188 -5.53125 3.484375 -5.53125 Z M 3.484375 -5.53125 "/></g></g></g><g fill="#000000" fill-opacity="1"><g transform="translate(189.187445, 325.064657)"><g><path d="M 3.078125 -5.53125 C 3.617188 -5.53125 4.070312 -5.441406 4.4375 -5.265625 C 4.800781 -5.097656 4.984375 -4.878906 4.984375 -4.609375 C 4.984375 -4.492188 4.941406 -4.390625 4.859375 -4.296875 C 4.785156 -4.203125 4.691406 -4.15625 4.578125 -4.15625 C 4.484375 -4.15625 4.410156 -4.164062 4.359375 -4.1875 C 4.316406 -4.21875 4.25 -4.265625 4.15625 -4.328125 C 4.113281 -4.367188 4.046875 -4.414062 3.953125 -4.46875 C 3.878906 -4.507812 3.765625 -4.546875 3.609375 -4.578125 C 3.453125 -4.609375 3.316406 -4.625 3.203125 -4.625 C 2.835938 -4.625 2.515625 -4.539062 2.234375 -4.375 C 1.960938 -4.207031 1.75 -3.976562 1.59375 -3.6875 C 1.445312 -3.394531 1.375 -3.070312 1.375 -2.71875 C 1.375 -2.351562 1.445312 -2.023438 1.59375 -1.734375 C 1.75 -1.441406 1.957031 -1.210938 2.21875 -1.046875 C 2.488281 -0.878906 2.796875 -0.796875 3.140625 -0.796875 C 3.503906 -0.796875 3.796875 -0.851562 4.015625 -0.96875 C 4.054688 -1 4.117188 -1.046875 4.203125 -1.109375 C 4.273438 -1.160156 4.335938 -1.195312 4.390625 -1.21875 C 4.441406 -1.25 4.503906 -1.265625 4.578125 -1.265625 C 4.710938 -1.265625 4.816406 -1.222656 4.890625 -1.140625 C 4.972656 -1.054688 5.015625 -0.941406 5.015625 -0.796875 C 5.015625 -0.660156 4.921875 -0.519531 4.734375 -0.375 C 4.554688 -0.238281 4.316406 -0.125 4.015625 -0.03125 C 3.710938 0.0625 3.382812 0.109375 3.03125 0.109375 C 2.507812 0.109375 2.046875 -0.0078125 1.640625 -0.25 C 1.242188 -0.5 0.9375 -0.835938 0.71875 -1.265625 C 0.507812 -1.703125 0.40625 -2.1875 0.40625 -2.71875 C 0.40625 -3.238281 0.515625 -3.710938 0.734375 -4.140625 C 0.960938 -4.578125 1.28125 -4.914062 1.6875 -5.15625 C 2.09375 -5.40625 2.554688 -5.53125 3.078125 -5.53125 Z M 3.078125 -5.53125 "/></g></g></g><g fill="#000000" fill-opacity="1"><g transform="translate(195.100457, 325.064657)"><g><path d="M 5.46875 -2.90625 C 5.46875 -2.78125 5.414062 -2.675781 5.3125 -2.59375 C 5.21875 -2.507812 5.109375 -2.46875 4.984375 -2.46875 L 1.34375 -2.46875 C 1.394531 -1.96875 1.585938 -1.5625 1.921875 -1.25 C 2.253906 -0.945312 2.660156 -0.796875 3.140625 -0.796875 C 3.472656 -0.796875 3.742188 -0.84375 3.953125 -0.9375 C 4.160156 -1.039062 4.34375 -1.164062 4.5 -1.3125 C 4.601562 -1.375 4.703125 -1.40625 4.796875 -1.40625 C 4.910156 -1.40625 5.003906 -1.363281 5.078125 -1.28125 C 5.160156 -1.207031 5.203125 -1.113281 5.203125 -1 C 5.203125 -0.851562 5.132812 -0.722656 5 -0.609375 C 4.800781 -0.410156 4.535156 -0.238281 4.203125 -0.09375 C 3.878906 0.0390625 3.546875 0.109375 3.203125 0.109375 C 2.640625 0.109375 2.144531 -0.00390625 1.71875 -0.234375 C 1.300781 -0.472656 0.976562 -0.800781 0.75 -1.21875 C 0.519531 -1.644531 0.40625 -2.125 0.40625 -2.65625 C 0.40625 -3.226562 0.519531 -3.734375 0.75 -4.171875 C 0.988281 -4.609375 1.300781 -4.941406 1.6875 -5.171875 C 2.082031 -5.410156 2.503906 -5.53125 2.953125 -5.53125 C 3.390625 -5.53125 3.800781 -5.414062 4.1875 -5.1875 C 4.570312 -4.957031 4.878906 -4.644531 5.109375 -4.25 C 5.347656 -3.851562 5.46875 -3.40625 5.46875 -2.90625 Z M 2.953125 -4.625 C 2.566406 -4.625 2.234375 -4.515625 1.953125 -4.296875 C 1.671875 -4.078125 1.484375 -3.742188 1.390625 -3.296875 L 4.4375 -3.296875 L 4.4375 -3.375 C 4.40625 -3.738281 4.238281 -4.035156 3.9375 -4.265625 C 3.644531 -4.503906 3.316406 -4.625 2.953125 -4.625 Z M 2.953125 -4.625 "/></g></g></g><g fill="#000000" fill-opacity="1"><g transform="translate(175.103138, 334.814656)"><g><path d="M 4.828125 -0.90625 C 4.953125 -0.90625 5.0625 -0.859375 5.15625 -0.765625 C 5.25 -0.679688 5.296875 -0.570312 5.296875 -0.4375 C 5.296875 -0.3125 5.25 -0.207031 5.15625 -0.125 C 5.0625 -0.0390625 4.953125 0 4.828125 0 L 1.171875 0 C 1.023438 0 0.90625 -0.0390625 0.8125 -0.125 C 0.726562 -0.21875 0.6875 -0.332031 0.6875 -0.46875 C 0.6875 -0.59375 0.734375 -0.710938 0.828125 -0.828125 L 3.140625 -3.328125 C 3.773438 -4.003906 4.09375 -4.601562 4.09375 -5.125 C 4.09375 -5.5 3.96875 -5.804688 3.71875 -6.046875 C 3.476562 -6.296875 3.171875 -6.421875 2.796875 -6.421875 C 2.535156 -6.421875 2.289062 -6.347656 2.0625 -6.203125 C 1.832031 -6.054688 1.644531 -5.847656 1.5 -5.578125 C 1.382812 -5.429688 1.253906 -5.359375 1.109375 -5.359375 C 0.984375 -5.359375 0.867188 -5.398438 0.765625 -5.484375 C 0.671875 -5.578125 0.625 -5.6875 0.625 -5.8125 C 0.625 -5.882812 0.648438 -5.960938 0.703125 -6.046875 C 0.753906 -6.128906 0.828125 -6.222656 0.921875 -6.328125 C 1.148438 -6.628906 1.4375 -6.867188 1.78125 -7.046875 C 2.132812 -7.234375 2.488281 -7.328125 2.84375 -7.328125 C 3.300781 -7.328125 3.695312 -7.234375 4.03125 -7.046875 C 4.375 -6.859375 4.632812 -6.601562 4.8125 -6.28125 C 5 -5.957031 5.09375 -5.585938 5.09375 -5.171875 C 5.09375 -4.378906 4.664062 -3.523438 3.8125 -2.609375 L 2.265625 -0.90625 Z M 4.828125 -0.90625 "/></g></g></g><g fill="#000000" fill-opacity="1"><g transform="translate(181.376673, 334.814656)"><g><path d="M 3.125 0.109375 C 2.5625 0.109375 2.078125 -0.046875 1.671875 -0.359375 C 1.273438 -0.679688 0.972656 -1.117188 0.765625 -1.671875 C 0.566406 -2.234375 0.46875 -2.878906 0.46875 -3.609375 C 0.46875 -4.335938 0.566406 -4.976562 0.765625 -5.53125 C 0.972656 -6.09375 1.273438 -6.53125 1.671875 -6.84375 C 2.078125 -7.164062 2.5625 -7.328125 3.125 -7.328125 C 3.6875 -7.328125 4.164062 -7.164062 4.5625 -6.84375 C 4.96875 -6.53125 5.269531 -6.09375 5.46875 -5.53125 C 5.675781 -4.976562 5.78125 -4.335938 5.78125 -3.609375 C 5.78125 -2.878906 5.675781 -2.234375 5.46875 -1.671875 C 5.269531 -1.117188 4.96875 -0.679688 4.5625 -0.359375 C 4.164062 -0.046875 3.6875 0.109375 3.125 0.109375 Z M 3.125 -0.890625 C 3.625 -0.890625 4.015625 -1.125 4.296875 -1.59375 C 4.578125 -2.070312 4.71875 -2.742188 4.71875 -3.609375 C 4.71875 -4.472656 4.578125 -5.140625 4.296875 -5.609375 C 4.015625 -6.085938 3.625 -6.328125 3.125 -6.328125 C 2.625 -6.328125 2.234375 -6.085938 1.953125 -5.609375 C 1.671875 -5.140625 1.53125 -4.472656 1.53125 -3.609375 C 1.53125 -2.742188 1.671875 -2.070312 1.953125 -1.59375 C 2.234375 -1.125 2.625 -0.890625 3.125 -0.890625 Z M 3.125 -0.890625 "/></g></g></g><g fill="#000000" fill-opacity="1"><g transform="translate(188.237358, 334.814656)"><g><path d="M 4.828125 -0.90625 C 4.953125 -0.90625 5.0625 -0.859375 5.15625 -0.765625 C 5.25 -0.679688 5.296875 -0.570312 5.296875 -0.4375 C 5.296875 -0.3125 5.25 -0.207031 5.15625 -0.125 C 5.0625 -0.0390625 4.953125 0 4.828125 0 L 1.171875 0 C 1.023438 0 0.90625 -0.0390625 0.8125 -0.125 C 0.726562 -0.21875 0.6875 -0.332031 0.6875 -0.46875 C 0.6875 -0.59375 0.734375 -0.710938 0.828125 -0.828125 L 3.140625 -3.328125 C 3.773438 -4.003906 4.09375 -4.601562 4.09375 -5.125 C 4.09375 -5.5 3.96875 -5.804688 3.71875 -6.046875 C 3.476562 -6.296875 3.171875 -6.421875 2.796875 -6.421875 C 2.535156 -6.421875 2.289062 -6.347656 2.0625 -6.203125 C 1.832031 -6.054688 1.644531 -5.847656 1.5 -5.578125 C 1.382812 -5.429688 1.253906 -5.359375 1.109375 -5.359375 C 0.984375 -5.359375 0.867188 -5.398438 0.765625 -5.484375 C 0.671875 -5.578125 0.625 -5.6875 0.625 -5.8125 C 0.625 -5.882812 0.648438 -5.960938 0.703125 -6.046875 C 0.753906 -6.128906 0.828125 -6.222656 0.921875 -6.328125 C 1.148438 -6.628906 1.4375 -6.867188 1.78125 -7.046875 C 2.132812 -7.234375 2.488281 -7.328125 2.84375 -7.328125 C 3.300781 -7.328125 3.695312 -7.234375 4.03125 -7.046875 C 4.375 -6.859375 4.632812 -6.601562 4.8125 -6.28125 C 5 -5.957031 5.09375 -5.585938 5.09375 -5.171875 C 5.09375 -4.378906 4.664062 -3.523438 3.8125 -2.609375 L 2.265625 -0.90625 Z M 4.828125 -0.90625 "/></g></g></g><g fill="#000000" fill-opacity="1"><g transform="translate(194.510893, 334.814656)"><g><path d="M 2.84375 -4.5625 C 3.226562 -4.5625 3.578125 -4.460938 3.890625 -4.265625 C 4.203125 -4.078125 4.445312 -3.8125 4.625 -3.46875 C 4.8125 -3.132812 4.90625 -2.757812 4.90625 -2.34375 C 4.90625 -1.851562 4.789062 -1.421875 4.5625 -1.046875 C 4.332031 -0.679688 4.015625 -0.394531 3.609375 -0.1875 C 3.210938 0.0078125 2.757812 0.109375 2.25 0.109375 C 1.96875 0.109375 1.695312 0.0703125 1.4375 0 C 1.1875 -0.0820312 0.96875 -0.195312 0.78125 -0.34375 C 0.59375 -0.445312 0.5 -0.585938 0.5 -0.765625 C 0.5 -0.890625 0.546875 -1.007812 0.640625 -1.125 C 0.734375 -1.238281 0.847656 -1.296875 0.984375 -1.296875 C 1.109375 -1.296875 1.226562 -1.25 1.34375 -1.15625 C 1.632812 -0.894531 1.988281 -0.765625 2.40625 -0.765625 C 2.675781 -0.765625 2.925781 -0.828125 3.15625 -0.953125 C 3.382812 -1.078125 3.566406 -1.253906 3.703125 -1.484375 C 3.847656 -1.710938 3.921875 -1.976562 3.921875 -2.28125 C 3.921875 -2.726562 3.78125 -3.070312 3.5 -3.3125 C 3.226562 -3.550781 2.898438 -3.671875 2.515625 -3.671875 C 2.398438 -3.671875 2.242188 -3.644531 2.046875 -3.59375 C 1.890625 -3.550781 1.773438 -3.53125 1.703125 -3.53125 C 1.578125 -3.53125 1.476562 -3.570312 1.40625 -3.65625 C 1.332031 -3.75 1.296875 -3.859375 1.296875 -3.984375 C 1.296875 -4.066406 1.304688 -4.132812 1.328125 -4.1875 C 1.359375 -4.238281 1.40625 -4.304688 1.46875 -4.390625 L 3.21875 -6.3125 L 0.828125 -6.3125 C 0.703125 -6.3125 0.59375 -6.351562 0.5 -6.4375 C 0.414062 -6.53125 0.375 -6.644531 0.375 -6.78125 C 0.375 -6.90625 0.414062 -7.007812 0.5 -7.09375 C 0.59375 -7.175781 0.703125 -7.21875 0.828125 -7.21875 L 4.125 -7.21875 C 4.28125 -7.21875 4.398438 -7.171875 4.484375 -7.078125 C 4.578125 -6.984375 4.625 -6.863281 4.625 -6.71875 C 4.625 -6.59375 4.5625 -6.46875 4.4375 -6.34375 Z M 2.84375 -4.5625 "/></g></g></g></svg>