<svg width="248.072" height="51.782" viewBox="0 0 248.072 51.782" xmlns="http://www.w3.org/2000/svg"><g id="svgGroup" stroke-linecap="round" fill-rule="evenodd" font-size="9pt" stroke="#000000" stroke-width="0" fill="#585f63" style="stroke:#000000;stroke-width:0;fill:#585f63"><path d="M 140.039 5.347 L 146.338 34.57 L 147.583 34.57 A 18794.484 18794.484 0 0 1 150.733 19.977 A 1899.069 1899.069 0 0 1 153.955 5.347 A 9.565 9.565 0 0 1 154.617 3.441 A 8.499 8.499 0 0 1 154.944 2.82 A 5.864 5.864 0 0 1 155.855 1.694 A 7.515 7.515 0 0 1 156.574 1.08 A 3.725 3.725 0 0 1 157.929 0.449 Q 158.454 0.317 159.071 0.297 A 6.929 6.929 0 0 1 159.302 0.293 A 6.101 6.101 0 0 1 160.435 0.394 A 4.622 4.622 0 0 1 161.554 0.751 A 5.372 5.372 0 0 1 162.59 1.385 A 4.564 4.564 0 0 1 163.165 1.923 A 4.916 4.916 0 0 1 163.983 3.155 A 4.564 4.564 0 0 1 164.118 3.479 A 5.049 5.049 0 0 1 164.385 4.518 A 4.316 4.316 0 0 1 164.429 5.127 A 9.604 9.604 0 0 1 164.408 5.766 A 8.482 8.482 0 0 1 164.392 5.969 Q 164.361 6.312 164.303 6.575 A 3.152 3.152 0 0 1 164.282 6.665 A 16.744 16.744 0 0 1 164.209 7.013 A 12.183 12.183 0 0 1 164.136 7.324 L 154.102 47.168 Q 153.552 48.413 152.637 49.365 A 6.693 6.693 0 0 1 151.691 50.214 A 9.167 9.167 0 0 1 150.641 50.885 A 5.129 5.129 0 0 1 149.263 51.393 Q 148.648 51.53 147.935 51.556 A 9.432 9.432 0 0 1 147.583 51.563 L 146.338 51.563 Q 144.887 51.563 143.85 51.137 A 4.25 4.25 0 0 1 143.335 50.885 A 8.151 8.151 0 0 1 142.356 50.226 Q 141.842 49.819 141.467 49.365 A 6.424 6.424 0 0 1 140.259 47.168 L 135.132 25.708 L 133.887 25.708 A 701.847 701.847 0 0 1 131.71 35.061 A 773.121 773.121 0 0 1 131.378 36.438 A 1264.686 1264.686 0 0 0 129.137 45.863 A 1148.584 1148.584 0 0 0 128.833 47.168 A 7.674 7.674 0 0 1 127.842 48.998 A 7.088 7.088 0 0 1 127.551 49.365 A 6.666 6.666 0 0 1 126.594 50.261 A 8.806 8.806 0 0 1 125.665 50.885 Q 124.705 51.449 123.274 51.544 A 9.021 9.021 0 0 1 122.681 51.563 L 121.436 51.563 A 8.229 8.229 0 0 1 120.042 51.451 Q 119.247 51.314 118.593 51.011 A 4.845 4.845 0 0 1 118.341 50.885 A 9.709 9.709 0 0 1 117.257 50.214 A 7.08 7.08 0 0 1 116.272 49.365 Q 115.32 48.413 114.771 47.168 L 104.883 7.324 A 12.183 12.183 0 0 1 104.81 7.013 A 16.744 16.744 0 0 1 104.736 6.665 A 3.595 3.595 0 0 1 104.68 6.393 Q 104.647 6.199 104.627 5.969 A 9.024 9.024 0 0 1 104.592 5.345 A 10.222 10.222 0 0 1 104.59 5.127 Q 104.59 4.321 104.901 3.479 A 4.782 4.782 0 0 1 105.755 2.035 A 5.483 5.483 0 0 1 105.853 1.923 A 4.78 4.78 0 0 1 107 0.996 A 5.803 5.803 0 0 1 107.465 0.751 A 4.69 4.69 0 0 1 108.727 0.369 A 6.228 6.228 0 0 1 109.717 0.293 Q 111.152 0.293 112.121 0.864 A 3.411 3.411 0 0 1 112.445 1.08 A 7.212 7.212 0 0 1 113.412 1.95 A 5.685 5.685 0 0 1 114.075 2.82 A 9.013 9.013 0 0 1 114.928 4.834 A 10.418 10.418 0 0 1 115.064 5.347 L 121.436 34.57 L 122.681 34.57 A 687.342 687.342 0 0 1 123.404 31.114 A 798.925 798.925 0 0 1 124.182 27.484 A 12518.745 12518.745 0 0 1 125.812 19.977 A 1880.918 1880.918 0 0 1 127.46 12.47 A 1918.986 1918.986 0 0 1 128.665 7.069 A 1683.363 1683.363 0 0 1 129.053 5.347 Q 129.566 3.259 131.03 1.886 A 4.959 4.959 0 0 1 134.546 0.513 Q 135.571 0.513 136.469 0.879 Q 137.366 1.245 138.08 1.886 A 6.046 6.046 0 0 1 139.175 3.204 A 6.918 6.918 0 0 1 139.307 3.424 A 6.666 6.666 0 0 1 140.039 5.347 Z M 12.305 14.282 L 12.305 37.5 A 9.663 9.663 0 0 0 12.47 38.922 A 7.045 7.045 0 0 0 12.891 40.32 A 5.104 5.104 0 0 0 13.771 41.723 A 6.38 6.38 0 0 0 14.301 42.261 Q 15.124 43.007 16.541 43.12 A 6.605 6.605 0 0 0 17.066 43.14 A 6.801 6.801 0 0 0 18.266 43.04 Q 18.936 42.92 19.479 42.655 A 3.785 3.785 0 0 0 19.885 42.426 A 4.949 4.949 0 0 0 21.607 40.503 A 8.173 8.173 0 0 0 22.223 38.894 A 10.457 10.457 0 0 0 22.467 37.72 A 21.56 21.56 0 0 0 22.697 35.064 A 24.307 24.307 0 0 0 22.705 34.424 A 3.622 3.622 0 0 1 22.8 33.615 A 4.333 4.333 0 0 1 22.888 33.289 Q 23.048 32.777 23.571 32.335 A 3.51 3.51 0 0 1 23.731 32.208 A 3.465 3.465 0 0 1 24.257 31.888 Q 24.821 31.605 25.645 31.391 A 11.123 11.123 0 0 1 25.672 31.384 A 8.438 8.438 0 0 1 26.562 31.211 Q 27.568 31.065 28.952 31.055 A 28.476 28.476 0 0 1 29.151 31.055 Q 31.187 31.055 32.358 31.479 A 4.199 4.199 0 0 1 32.538 31.549 Q 33.728 32.044 34.277 32.684 A 3.611 3.611 0 0 1 34.601 33.121 Q 34.758 33.372 34.841 33.617 A 1.809 1.809 0 0 1 34.918 33.93 Q 35.01 34.534 35.01 34.717 A 20.499 20.499 0 0 1 34.65 38.642 A 16.144 16.144 0 0 1 33.655 41.913 A 14.925 14.925 0 0 1 29.828 47.278 A 16.441 16.441 0 0 1 25.081 50.201 A 19.416 19.416 0 0 1 23.932 50.629 Q 20.508 51.782 16.406 51.782 A 12.178 12.178 0 0 1 16.025 51.775 Q 15.445 51.757 14.494 51.689 A 84.91 84.91 0 0 1 14.264 51.672 A 15.527 15.527 0 0 1 12.797 51.489 Q 12.032 51.358 11.192 51.148 A 26.221 26.221 0 0 1 10.95 51.087 A 18.595 18.595 0 0 1 8.618 50.305 A 22.778 22.778 0 0 1 7.178 49.658 A 11.981 11.981 0 0 1 4.048 47.417 A 13.839 13.839 0 0 1 3.644 47.003 A 12.339 12.339 0 0 1 1.894 44.58 A 15.951 15.951 0 0 1 1.026 42.755 A 13.124 13.124 0 0 1 0.307 40.219 Q 0 38.551 0 36.548 L 0 16.113 A 20.947 20.947 0 0 1 0.161 13.451 Q 0.343 12.029 0.733 10.803 A 16.406 16.406 0 0 1 1.671 8.461 A 13.032 13.032 0 0 1 2.655 6.793 A 12.781 12.781 0 0 1 4.682 4.508 A 11.544 11.544 0 0 1 5.383 3.937 A 19.01 19.01 0 0 1 7.931 2.316 A 17.118 17.118 0 0 1 8.533 2.014 Q 12.268 0.256 17.066 0 Q 20.496 0 23.116 0.664 A 16.344 16.344 0 0 1 24.005 0.916 A 19.854 19.854 0 0 1 26.533 1.895 A 14.422 14.422 0 0 1 28.912 3.296 A 13.779 13.779 0 0 1 31.053 5.224 A 11.67 11.67 0 0 1 32.117 6.61 A 17.229 17.229 0 0 1 33.51 9.179 A 15.024 15.024 0 0 1 33.966 10.364 A 19.228 19.228 0 0 1 34.596 12.687 A 15.907 15.907 0 0 1 34.808 14.026 A 36.483 36.483 0 0 1 34.931 15.277 Q 34.98 15.894 34.999 16.439 A 18.539 18.539 0 0 1 35.01 17.066 A 8.332 8.332 0 0 1 34.997 17.511 Q 34.976 17.91 34.918 18.402 A 2.91 2.91 0 0 1 34.576 19.459 A 3.755 3.755 0 0 1 34.277 19.922 Q 33.728 20.654 32.538 21.167 Q 31.404 21.656 29.354 21.679 A 18.233 18.233 0 0 1 29.151 21.68 A 15.155 15.155 0 0 1 28.577 21.668 Q 28.3 21.657 27.986 21.638 A 33.796 33.796 0 0 1 27.319 21.588 Q 26.221 21.497 25.195 21.112 Q 24.17 20.728 23.438 20.014 A 2.34 2.34 0 0 1 22.8 18.866 Q 22.708 18.49 22.705 18.046 A 4.452 4.452 0 0 1 22.705 18.018 A 28.259 28.259 0 0 0 22.649 16.196 Q 22.592 15.306 22.475 14.516 A 17.206 17.206 0 0 0 22.467 14.465 A 9.497 9.497 0 0 0 22.185 13.179 Q 21.985 12.506 21.692 11.949 A 5.71 5.71 0 0 0 21.607 11.792 A 4.234 4.234 0 0 0 19.885 10.108 A 4.543 4.543 0 0 0 18.805 9.707 Q 18.034 9.522 17.066 9.522 A 6.913 6.913 0 0 0 16.024 9.595 Q 15.48 9.678 15.038 9.856 A 3.07 3.07 0 0 0 14.301 10.272 Q 13.33 11.023 12.891 11.902 A 5.938 5.938 0 0 0 12.372 13.62 A 7.212 7.212 0 0 0 12.305 14.282 Z M 70.752 23.291 L 70.752 43.286 Q 70.752 44.824 70.642 46.307 A 8.283 8.283 0 0 1 70.382 47.867 A 6.724 6.724 0 0 1 69.983 48.963 A 4.477 4.477 0 0 1 68.335 50.849 Q 67.236 51.563 65.259 51.563 A 9.733 9.733 0 0 1 64.086 51.496 Q 63.488 51.424 62.994 51.271 A 4.061 4.061 0 0 1 62.109 50.885 A 5.33 5.33 0 0 1 61.187 50.198 A 4.062 4.062 0 0 1 60.425 49.237 Q 59.876 48.267 59.747 47.205 A 21.645 21.645 0 0 1 59.669 46.455 Q 59.619 45.868 59.619 45.41 A 11.022 11.022 0 0 1 59.044 46.871 A 13.247 13.247 0 0 1 58.685 47.571 A 7.787 7.787 0 0 1 57.129 49.548 A 7.498 7.498 0 0 1 55.562 50.651 A 9.048 9.048 0 0 1 54.84 50.995 Q 53.504 51.563 51.709 51.563 A 12.886 12.886 0 0 1 47.681 50.903 A 9.475 9.475 0 0 1 44.055 48.706 A 10.197 10.197 0 0 1 42.355 46.55 A 13.582 13.582 0 0 1 41.437 44.696 A 12.507 12.507 0 0 1 40.748 42.312 Q 40.43 40.638 40.43 38.599 L 40.43 27.979 Q 40.43 25.103 41.051 22.962 A 11.293 11.293 0 0 1 41.437 21.845 A 13.148 13.148 0 0 1 42.514 19.736 A 9.836 9.836 0 0 1 44.055 17.853 A 9.582 9.582 0 0 1 47.681 15.674 A 12.886 12.886 0 0 1 51.709 15.015 Q 53.44 15.015 54.746 15.526 A 6.174 6.174 0 0 1 54.84 15.564 A 8.09 8.09 0 0 1 56.361 16.379 A 6.911 6.911 0 0 1 57.129 16.992 A 7.787 7.787 0 0 1 58.685 18.97 A 11.692 11.692 0 0 1 59.434 20.609 A 10.281 10.281 0 0 1 59.619 21.167 Q 59.619 19.749 59.927 18.704 A 5.328 5.328 0 0 1 60.132 18.128 A 6.285 6.285 0 0 1 60.657 17.134 A 4.606 4.606 0 0 1 61.45 16.205 Q 62.256 15.491 63.263 15.216 Q 64.27 14.942 65.259 14.942 A 7.645 7.645 0 0 1 66.431 15.026 Q 67.047 15.122 67.551 15.326 A 3.745 3.745 0 0 1 68.189 15.656 A 4.634 4.634 0 0 1 69.855 17.523 A 7.164 7.164 0 0 1 70.387 19.022 A 9.38 9.38 0 0 1 70.587 20.197 Q 70.752 21.716 70.752 23.291 Z M 198.12 23.291 L 198.12 43.286 Q 198.12 44.824 198.01 46.307 A 8.283 8.283 0 0 1 197.751 47.867 A 6.724 6.724 0 0 1 197.351 48.963 A 4.477 4.477 0 0 1 195.703 50.849 Q 194.605 51.563 192.627 51.563 A 9.733 9.733 0 0 1 191.454 51.496 Q 190.856 51.424 190.362 51.271 A 4.061 4.061 0 0 1 189.478 50.885 A 5.33 5.33 0 0 1 188.556 50.198 A 4.062 4.062 0 0 1 187.793 49.237 Q 187.244 48.267 187.116 47.205 A 21.645 21.645 0 0 1 187.037 46.455 Q 186.987 45.868 186.987 45.41 A 11.022 11.022 0 0 1 186.412 46.871 A 13.247 13.247 0 0 1 186.054 47.571 A 7.787 7.787 0 0 1 184.497 49.548 A 7.498 7.498 0 0 1 182.93 50.651 A 9.048 9.048 0 0 1 182.208 50.995 Q 180.872 51.563 179.077 51.563 A 12.886 12.886 0 0 1 175.049 50.903 A 9.475 9.475 0 0 1 171.423 48.706 A 10.197 10.197 0 0 1 169.723 46.55 A 13.582 13.582 0 0 1 168.805 44.696 A 12.507 12.507 0 0 1 168.117 42.312 Q 167.798 40.638 167.798 38.599 L 167.798 27.979 Q 167.798 25.103 168.419 22.962 A 11.293 11.293 0 0 1 168.805 21.845 A 13.148 13.148 0 0 1 169.882 19.736 A 9.836 9.836 0 0 1 171.423 17.853 A 9.582 9.582 0 0 1 175.049 15.674 A 12.886 12.886 0 0 1 179.077 15.015 Q 180.809 15.015 182.114 15.526 A 6.174 6.174 0 0 1 182.208 15.564 A 8.09 8.09 0 0 1 183.729 16.379 A 6.911 6.911 0 0 1 184.497 16.992 A 7.787 7.787 0 0 1 186.054 18.97 A 11.692 11.692 0 0 1 186.802 20.609 A 10.281 10.281 0 0 1 186.987 21.167 Q 186.987 19.749 187.295 18.704 A 5.328 5.328 0 0 1 187.5 18.128 A 6.285 6.285 0 0 1 188.025 17.134 A 4.606 4.606 0 0 1 188.818 16.205 Q 189.624 15.491 190.631 15.216 Q 191.638 14.942 192.627 14.942 A 7.645 7.645 0 0 1 193.799 15.026 Q 194.415 15.122 194.919 15.326 A 3.745 3.745 0 0 1 195.557 15.656 A 4.634 4.634 0 0 1 197.223 17.523 A 7.164 7.164 0 0 1 197.755 19.022 A 9.38 9.38 0 0 1 197.955 20.197 Q 198.12 21.716 198.12 23.291 Z M 90.527 33.106 L 90.527 43.579 A 25.545 25.545 0 0 1 90.363 46.509 Q 90.198 47.937 89.612 49.054 Q 89.026 50.171 87.927 50.867 Q 87.061 51.415 85.717 51.531 A 8.794 8.794 0 0 1 84.961 51.563 A 7.832 7.832 0 0 1 83.842 51.488 Q 83.254 51.403 82.772 51.221 A 3.599 3.599 0 0 1 82.068 50.867 A 4.657 4.657 0 0 1 80.438 49.054 Q 79.871 47.937 79.706 46.509 A 25.545 25.545 0 0 1 79.541 43.579 L 79.541 23.071 Q 79.541 21.533 79.706 20.087 Q 79.871 18.64 80.438 17.505 A 4.494 4.494 0 0 1 82.068 15.692 A 3.86 3.86 0 0 1 83.101 15.241 Q 83.589 15.103 84.173 15.049 A 8.579 8.579 0 0 1 84.961 15.015 A 6.825 6.825 0 0 1 86.044 15.095 Q 87.143 15.272 87.836 15.839 A 4.79 4.79 0 0 1 89.257 17.802 A 5.687 5.687 0 0 1 89.319 17.963 A 8.958 8.958 0 0 1 89.764 19.749 A 11.175 11.175 0 0 1 89.868 20.856 A 67.797 67.797 0 0 1 89.941 23.762 A 61.935 61.935 0 0 1 89.942 23.95 L 90.527 23.95 A 19.075 19.075 0 0 1 91.297 21.537 A 15.857 15.857 0 0 1 91.882 20.233 A 15.208 15.208 0 0 1 92.771 18.695 A 11.403 11.403 0 0 1 93.75 17.413 A 8.898 8.898 0 0 1 94.881 16.338 A 7.078 7.078 0 0 1 95.947 15.637 A 5.474 5.474 0 0 1 97.192 15.152 A 4.531 4.531 0 0 1 98.291 15.015 A 10.769 10.769 0 0 1 99.21 15.052 Q 100.028 15.122 100.617 15.326 A 3.337 3.337 0 0 1 101.407 15.717 A 2.719 2.719 0 0 1 102.026 16.297 A 3.256 3.256 0 0 1 102.489 17.127 Q 102.63 17.492 102.712 17.923 A 5.51 5.51 0 0 1 102.722 17.981 A 10.645 10.645 0 0 1 102.841 18.881 Q 102.885 19.366 102.899 19.919 A 20.578 20.578 0 0 1 102.905 20.435 Q 102.905 23.291 101.495 24.609 Q 100.086 25.928 97.485 25.928 A 6.598 6.598 0 0 0 97.283 25.931 Q 97.054 25.938 96.742 25.96 A 26.388 26.388 0 0 0 96.442 25.983 A 6.049 6.049 0 0 0 95.651 26.103 A 7.815 7.815 0 0 0 94.995 26.276 A 7.096 7.096 0 0 0 93.954 26.695 A 8.582 8.582 0 0 0 93.439 26.972 A 5.216 5.216 0 0 0 92.384 27.789 A 6.349 6.349 0 0 0 91.992 28.217 A 5.21 5.21 0 0 0 91.364 29.172 Q 91.119 29.646 90.93 30.213 A 7.301 7.301 0 0 0 90.648 31.405 Q 90.558 31.99 90.535 32.654 A 13.293 13.293 0 0 0 90.527 33.106 Z M 217.896 33.106 L 217.896 43.579 A 25.545 25.545 0 0 1 217.731 46.509 Q 217.566 47.937 216.98 49.054 Q 216.394 50.171 215.296 50.867 Q 214.429 51.415 213.085 51.531 A 8.794 8.794 0 0 1 212.329 51.563 A 7.832 7.832 0 0 1 211.21 51.488 Q 210.622 51.403 210.14 51.221 A 3.599 3.599 0 0 1 209.436 50.867 A 4.657 4.657 0 0 1 207.807 49.054 Q 207.239 47.937 207.074 46.509 A 25.545 25.545 0 0 1 206.909 43.579 L 206.909 23.071 Q 206.909 21.533 207.074 20.087 Q 207.239 18.64 207.807 17.505 A 4.494 4.494 0 0 1 209.436 15.692 A 3.86 3.86 0 0 1 210.469 15.241 Q 210.958 15.103 211.541 15.049 A 8.579 8.579 0 0 1 212.329 15.015 A 6.825 6.825 0 0 1 213.412 15.095 Q 214.512 15.272 215.204 15.839 A 4.79 4.79 0 0 1 216.626 17.802 A 5.687 5.687 0 0 1 216.687 17.963 A 8.958 8.958 0 0 1 217.132 19.749 A 11.175 11.175 0 0 1 217.236 20.856 A 67.797 67.797 0 0 1 217.309 23.762 A 61.935 61.935 0 0 1 217.31 23.95 L 217.896 23.95 A 19.075 19.075 0 0 1 218.665 21.537 A 15.857 15.857 0 0 1 219.251 20.233 A 15.208 15.208 0 0 1 220.139 18.695 A 11.403 11.403 0 0 1 221.118 17.413 A 8.898 8.898 0 0 1 222.249 16.338 A 7.078 7.078 0 0 1 223.316 15.637 A 5.474 5.474 0 0 1 224.561 15.152 A 4.531 4.531 0 0 1 225.659 15.015 A 10.769 10.769 0 0 1 226.578 15.052 Q 227.396 15.122 227.985 15.326 A 3.337 3.337 0 0 1 228.775 15.717 A 2.719 2.719 0 0 1 229.395 16.297 A 3.256 3.256 0 0 1 229.857 17.127 Q 229.998 17.492 230.08 17.923 A 5.51 5.51 0 0 1 230.09 17.981 A 10.645 10.645 0 0 1 230.209 18.881 Q 230.253 19.366 230.267 19.919 A 20.578 20.578 0 0 1 230.274 20.435 Q 230.274 23.291 228.864 24.609 Q 227.454 25.928 224.854 25.928 A 6.598 6.598 0 0 0 224.651 25.931 Q 224.422 25.938 224.11 25.96 A 26.388 26.388 0 0 0 223.81 25.983 A 6.049 6.049 0 0 0 223.019 26.103 A 7.815 7.815 0 0 0 222.363 26.276 A 7.096 7.096 0 0 0 221.322 26.695 A 8.582 8.582 0 0 0 220.807 26.972 A 5.216 5.216 0 0 0 219.752 27.789 A 6.349 6.349 0 0 0 219.36 28.217 A 5.21 5.21 0 0 0 218.732 29.172 Q 218.487 29.646 218.298 30.213 A 7.301 7.301 0 0 0 218.016 31.405 Q 217.926 31.99 217.903 32.654 A 13.293 13.293 0 0 0 217.896 33.106 Z M 51.709 28.784 L 51.709 37.647 Q 51.709 38.635 51.782 39.588 Q 51.856 40.54 52.185 41.309 A 2.941 2.941 0 0 0 52.785 42.219 A 2.772 2.772 0 0 0 53.156 42.536 A 2.213 2.213 0 0 0 53.811 42.848 Q 54.293 42.993 54.932 42.993 Q 56.135 42.993 56.962 42.538 A 2.984 2.984 0 0 0 57.257 42.352 Q 58.075 41.768 58.574 40.605 A 6.429 6.429 0 0 0 58.667 40.375 A 9.373 9.373 0 0 0 59.008 39.275 Q 59.159 38.666 59.264 37.957 A 19.546 19.546 0 0 0 59.381 37.006 A 42.334 42.334 0 0 0 59.509 35.371 Q 59.596 33.916 59.619 32.153 A 15.567 15.567 0 0 0 59.581 31.094 Q 59.544 30.55 59.471 29.945 A 27.819 27.819 0 0 0 59.418 29.535 Q 59.216 28.052 58.704 26.734 A 6.7 6.7 0 0 0 57.857 25.177 A 5.944 5.944 0 0 0 57.276 24.5 A 3.092 3.092 0 0 0 55.282 23.599 A 4.174 4.174 0 0 0 54.932 23.584 Q 53.797 23.584 53.156 24.042 Q 52.515 24.5 52.185 25.232 A 4.571 4.571 0 0 0 51.873 26.226 A 5.822 5.822 0 0 0 51.782 26.898 Q 51.709 27.832 51.709 28.784 Z M 179.077 28.784 L 179.077 37.647 Q 179.077 38.635 179.151 39.588 Q 179.224 40.54 179.553 41.309 A 2.941 2.941 0 0 0 180.154 42.219 A 2.772 2.772 0 0 0 180.524 42.536 A 2.213 2.213 0 0 0 181.179 42.848 Q 181.661 42.993 182.3 42.993 Q 183.504 42.993 184.33 42.538 A 2.984 2.984 0 0 0 184.625 42.352 Q 185.443 41.768 185.942 40.605 A 6.429 6.429 0 0 0 186.035 40.375 A 9.373 9.373 0 0 0 186.376 39.275 Q 186.527 38.666 186.632 37.957 A 19.546 19.546 0 0 0 186.749 37.006 A 42.334 42.334 0 0 0 186.877 35.371 Q 186.965 33.916 186.987 32.153 A 15.567 15.567 0 0 0 186.949 31.094 Q 186.912 30.55 186.839 29.945 A 27.819 27.819 0 0 0 186.786 29.535 Q 186.585 28.052 186.072 26.734 A 6.7 6.7 0 0 0 185.225 25.177 A 5.944 5.944 0 0 0 184.644 24.5 A 3.092 3.092 0 0 0 182.65 23.599 A 4.174 4.174 0 0 0 182.3 23.584 Q 181.165 23.584 180.524 24.042 Q 179.883 24.5 179.553 25.232 A 4.571 4.571 0 0 0 179.241 26.226 A 5.822 5.822 0 0 0 179.151 26.898 Q 179.077 27.832 179.077 28.784 Z M 246.497 50.079 A 4.346 4.346 0 0 0 247.409 48.835 Q 248.071 47.502 248.071 45.484 A 10.948 10.948 0 0 0 247.984 44.056 Q 247.711 41.988 246.588 40.906 A 4.405 4.405 0 0 0 245.308 40.058 Q 244.003 39.478 242.066 39.478 A 10.807 10.807 0 0 0 241.196 39.511 Q 240.276 39.586 239.51 39.824 A 5.111 5.111 0 0 0 237.561 40.906 A 4.17 4.17 0 0 0 236.577 42.271 Q 236.258 42.965 236.111 43.848 A 9.999 9.999 0 0 0 235.986 45.484 A 10.598 10.598 0 0 0 236.044 46.61 Q 236.139 47.499 236.393 48.225 A 4.569 4.569 0 0 0 237.561 50.079 Q 238.622 51.079 240.299 51.405 A 9.266 9.266 0 0 0 242.066 51.563 Q 244.922 51.563 246.497 50.079 Z"/></g></svg>